<svg width="410" height="304" viewBox="0 0 410 304" fill="none" xmlns="http://www.w3.org/2000/svg">
<path d="M172.62 98.234C172.62 98.234 185.003 115.45 191.387 121.304C196.926 126.384 211.422 133.252 216.237 135.805L217.389 136.414L219.408 132.438C219.408 132.438 199.959 118.799 196.09 115.685C192.224 112.575 181.06 95.626 181.06 95.626L172.62 98.234ZM163.293 92.7701C162.659 92.3805 135.333 96.7755 129.17 94.161C123.008 91.5466 109.367 71.4906 109.367 71.4906L105.147 68.9277C103.468 67.9076 102.111 66.4317 101.236 64.6712L100.342 62.8745C99.393 60.9652 100.786 58.7243 102.918 58.7339L106.832 59.9317C108.334 60.3907 109.695 61.2247 110.786 62.3552C111.877 63.4857 112.662 64.8755 113.069 66.3937L113.423 67.7139C113.423 67.7139 129.649 84.9525 132.403 86.6396C135.153 88.3268 148.597 84.344 152.872 84.0542L163.293 92.7701Z" fill="#B97A59"/>
<path d="M124.491 153.469C124.491 153.469 152.968 150.945 165.859 126.607L148.996 127.785C148.996 127.785 116.36 145.919 113.877 149.393C111.393 152.867 118.344 196.415 118.344 196.415H125.169L124.491 153.469Z" fill="#0E538C"/>
<path d="M148.996 127.786C148.996 127.786 152.721 171.32 161.157 187.966C169.597 204.613 180.269 227.969 180.269 227.969L188.564 225.731L170.092 177.032C170.092 177.032 167.886 153.676 168.355 150.694C168.825 147.713 173.247 135.796 168.78 126.604L148.996 127.786Z" fill="#0E538C"/>
<path d="M140 86.2019L140.961 96.5792C140.961 96.5792 148.845 97.6739 148.748 98.1537C145.834 112.221 141.026 132.251 140.354 132.666C140.354 132.666 147.957 133.355 153.714 135.294C159.472 137.232 170.468 142.802 170.468 142.802C170.468 142.802 171.623 117.659 172.231 113.18C172.836 108.698 177.271 92.5126 177.271 92.5126C162.09 77.589 140 86.2019 140 86.2019Z" fill="#2BB573"/>
<path d="M167.805 82.2096L167.3 85.0301C166.927 87.1036 164.911 88.4527 162.855 88.0019L162.273 87.8732C160.282 87.4385 159.015 85.4776 159.433 83.4814L160.913 76.4011L165.432 78.0593C167.124 78.6872 168.124 80.4355 167.805 82.2096Z" fill="#A86D52"/>
<path d="M177.725 68.2097C177.725 68.2097 176.637 79.8202 171.906 84.0477C167.175 88.2753 157.638 81.1403 158.381 73.21C160.028 55.7427 174.811 61.8056 177.725 68.2097Z" fill="#B97A59"/>
<path d="M169.32 86.7107C169.32 86.7107 179.397 91.1024 186.007 102.31L177.908 109.297L168.777 100.54C168.78 100.54 165.975 92.5288 169.32 86.7107Z" fill="#2BB573"/>
<path opacity="0.2" d="M0.914551 304C0.914551 304 48.4427 201.553 104.411 201.627C169.233 201.711 122.654 237.032 187.805 238.896C252.955 240.76 381.742 279.443 381.742 279.443L409.663 303.997H0.914551V304Z" fill="#2BB573"/>
<path d="M119.647 196.411L119.167 196.691C116.466 198.269 113.529 199.386 110.493 200.13C104.215 201.663 103.61 204.738 103.61 204.738C103.375 205.163 105.331 206.36 105.813 206.322L116.07 204.087C117.825 203.704 119.627 203.591 121.416 203.752L124.304 204.01C125.645 203.984 126.623 202.732 126.321 201.421L125.169 196.411H119.647ZM180.269 227.965C180.269 227.965 177.911 236.568 171.395 236.011C171.395 236.011 167.802 241.758 177.538 240.297C181.263 239.736 182.047 234.894 189.824 236.105C191.973 236.439 193.176 233.87 193.176 233.87C193.986 231.085 191.835 229.472 189.924 227.289L188.564 225.73L180.269 227.965ZM92.7 203.295L89.4321 203.054L109.85 9.68408L113.114 9.92556L92.7 203.295Z" fill="#0B4870"/>
<path d="M109.811 11.6096C109.811 11.6096 83.9515 -8.105 73.5466 5.03487C59.8127 22.3765 50.5303 15.8179 45.7411 10.5375C45.7411 10.5375 49.9481 21.0597 32.2517 37.7638C32.2517 37.7638 55.654 54.8898 68.7124 44.3289C81.7676 33.7681 103.771 45.5911 106.447 53.7693L109.811 11.6096Z" fill="#2BB573"/>
<path d="M217.659 137.377C217.659 137.377 215.974 136.079 213.831 133.546C211.693 131.015 213.831 131.337 213.831 131.337L217.074 130.812C217.074 130.812 221.264 128.964 223.754 129.518C224.336 129.646 224.658 129.592 225.233 129.534C225.751 129.482 228.923 131.958 224.468 131.462C223.3 131.334 222.976 131.852 223.365 132.242C223.754 132.631 228.717 132.947 229.138 134.45C230.299 138.617 225.346 140.4 223.3 139.737C221.316 139.096 217.659 137.377 217.659 137.377Z" fill="#B97A59"/>
<path d="M162.672 64.8906C162.672 64.8906 164.508 70.5381 171.025 69.7943C177.541 69.0473 176.743 73.9156 176.743 73.9156C176.743 73.9156 182.227 68.9958 177.847 64.8938C173.463 60.7886 171.8 55.4502 162.672 59.9837C153.544 64.5171 155.721 73.0302 158.198 76.4431L158.976 77.2255C159.462 77.7117 160.272 77.6183 160.629 77.0323L160.633 77.0259C160.845 76.6782 160.838 76.2435 160.62 75.899C159.983 74.8912 158.848 72.7114 159.925 71.4364C160.584 70.6572 161.096 70.8214 161.459 71.2271C162.054 71.8968 162.981 72.1576 163.807 71.8099L163.872 71.7841C163.872 71.7809 166.959 68.6223 162.672 64.8906Z" fill="#0B4870"/>
</svg>
