<svg width="506" height="462" viewBox="0 0 506 462" fill="none" xmlns="http://www.w3.org/2000/svg">
<g opacity="0.7">
<path d="M347.257 96.7316C297.564 135.522 229.009 107.431 206.242 80.252C138.904 0.085125 396.949 57.9412 347.257 96.7316Z" fill="url(#paint0_radial_79_20)"/>
</g>
<g opacity="0.7">
<path d="M424.381 342.506C391.777 398.385 327.532 446.201 256.442 458.37C244.982 460.348 233.319 461.362 221.555 461.362C218.767 461.362 216.029 461.311 213.24 461.159C165.931 459.182 117.861 439.812 75.7744 395.697C10.7181 327.548 -8.6011 260.869 3.31491 203.52C6.76295 186.837 12.8984 170.915 21.265 156.008C94.8908 24.9314 179.216 106.822 282.2 121.172C353.24 131.06 433.863 159.304 451.104 223.65C459.369 254.378 453.081 293.371 424.432 342.557L424.381 342.506Z" fill="url(#paint1_radial_79_20)"/>
</g>
<path d="M439.542 33.2978H351.313C335.898 33.2978 323.374 45.8223 323.374 61.237C323.374 76.6518 335.898 89.1763 351.313 89.1763H439.542C454.957 89.1763 467.481 76.6518 467.481 61.237C467.481 45.8223 454.957 33.2978 439.542 33.2978Z" fill="url(#paint2_linear_79_20)"/>
<path d="M388.531 86.6918L340.968 117.876L344.822 86.6918H388.531Z" fill="url(#paint3_linear_79_20)"/>
<path d="M415.356 60.0201C415.356 56.2171 418.45 53.124 422.253 53.124C426.056 53.124 429.149 56.2171 429.149 60.0201C429.149 63.8231 426.056 66.9162 422.253 66.9162C418.45 66.9162 415.356 63.8231 415.356 60.0201Z" fill="white"/>
<path d="M388.532 60.0201C388.532 56.2171 391.626 53.124 395.429 53.124C399.232 53.124 402.325 56.2171 402.325 60.0201C402.325 63.8231 399.232 66.9162 395.429 66.9162C391.626 66.9162 388.532 63.8231 388.532 60.0201Z" fill="white"/>
<path d="M361.657 60.0202C361.657 56.2172 364.751 53.1241 368.554 53.1241C372.357 53.1241 375.45 56.2172 375.45 60.0202C375.45 63.8232 372.357 66.9162 368.554 66.9162C364.751 66.9162 361.657 63.8232 361.657 60.0202Z" fill="white"/>
<path d="M249.874 0.383231H249.638L253.367 19.2029L266.582 6.67311L266.016 5.87439C262.051 1.3317 255.963 -0.964599 249.827 0.383231H249.874Z" fill="url(#paint4_linear_79_20)"/>
<path d="M198.807 412.298L179.604 415.265L179.705 416.472C179.958 418.082 180.413 419.691 181.221 421.35C182.282 423.563 183.697 425.424 185.466 426.983L198.807 412.298Z" fill="url(#paint5_linear_79_20)"/>
<path d="M447.88 276.748C450.688 276.748 452.963 274.472 452.963 271.665C452.963 268.858 450.688 266.582 447.88 266.582C445.073 266.582 442.797 268.858 442.797 271.665C442.797 274.472 445.073 276.748 447.88 276.748Z" fill="url(#paint6_linear_79_20)"/>
<path d="M119.736 10.731C119.736 13.544 117.466 15.8142 114.653 15.8142C111.84 15.8142 109.57 13.544 109.57 10.731C109.57 7.91805 111.84 5.64792 114.653 5.64792C117.466 5.64792 119.736 7.91805 119.736 10.731Z" fill="url(#paint7_linear_79_20)"/>
<path d="M41.5987 422.115L54.4274 421.456L54.7316 413.343C58.4332 412.329 61.8812 410.655 64.9236 408.475L71.4141 413.394L80.0342 403.861L74.5071 397.928C76.3833 394.683 77.6509 391.083 78.3101 387.28L86.3725 386.164L85.7133 373.335L77.6002 373.031C76.5861 369.33 74.9128 365.882 72.7831 362.839L77.7017 356.349L68.1688 347.729L62.2362 353.256C58.991 351.38 55.3908 350.112 51.5878 349.453L50.4723 341.39L37.6436 342.05L37.3393 350.163C33.6377 351.177 30.1897 352.85 27.1473 355.03L20.6569 350.112L12.0368 359.645L17.5638 365.628C15.7384 368.873 14.42 372.473 13.7608 376.276L5.69849 377.392L6.35767 390.221L14.4707 390.525C15.4848 394.226 17.1581 397.675 19.2878 400.717L14.3693 407.207L23.9021 415.827L29.8855 410.3C33.1307 412.126 36.7308 413.444 40.5338 414.103L41.6494 422.166L41.5987 422.115ZM22.8373 382.919C22.1781 370.09 32.0658 359.188 44.8439 358.58C57.6726 357.921 68.5745 367.808 69.183 380.586C69.8422 393.415 59.9544 404.317 47.1764 404.926C34.3476 405.585 23.4457 395.697 22.8373 382.919Z" fill="url(#paint8_linear_79_20)"/>
<path d="M37.0852 347.627L37.288 341.796L46.973 341.34L47.0237 341.897L37.8458 342.354L37.643 347.627H37.0852Z" fill="#1A120E"/>
<path d="M5.69849 377.645V377.088L13.4566 376.023C13.9636 371.763 16.0426 367.91 16.0426 367.859L16.5497 368.112C16.5497 368.112 14.4707 372.068 14.0143 376.327V376.53L5.69849 377.645Z" fill="#1A120E"/>
<path d="M32.0657 400.717L32.3699 400.26C47.3283 410.757 60.3092 399.652 60.4613 399.55L60.8162 400.007C60.8162 400.007 47.3283 411.466 32.0657 400.717Z" fill="#1A120E"/>
<path d="M59.3967 411.467C62.3883 409.946 64.7715 408.323 64.7715 408.272L64.9237 408.171L67.3069 409.996L66.9519 410.453L64.873 408.881C64.2645 409.287 62.1855 410.656 59.5995 411.974L59.3459 411.467H59.3967Z" fill="#1A120E"/>
<path d="M8.03174 393.364L7.37256 379.978L15.4856 378.862C15.6884 377.798 16.6011 372.676 19.1872 368.518L13.6095 362.535L22.5845 352.596L29.1256 357.566C29.9876 356.957 33.8413 354.27 39.0641 352.85L39.3683 344.636L52.7548 343.976L53.8704 352.089C55.0366 352.292 60.7665 353.408 64.2145 355.74L70.1979 350.163L80.1363 359.138L75.2178 365.679C75.877 366.49 78.463 369.887 79.9335 375.617L88.1479 375.921L88.8071 389.308L80.6941 390.423C80.4913 391.539 79.5786 396.711 76.9925 400.768L82.5702 406.751L73.5952 416.689L67.0541 411.72C66.2428 412.379 62.4905 415.067 57.1156 416.436L56.8114 424.65L43.4249 425.309L42.3093 417.196C41.2445 417.044 36.5795 416.284 31.9652 413.495L25.9818 419.073L16.0434 410.098L20.9619 403.556C20.3027 402.745 17.5139 399.145 16.2462 393.618L8.08245 393.314L8.03174 393.364ZM7.93033 380.485L8.53881 392.807L16.6518 393.111V393.314C18.0716 399.551 21.469 403.354 21.469 403.404L21.6211 403.556L16.7025 410.047L25.8804 418.312L31.8131 412.785L32.0159 412.886C37.188 416.03 42.4614 416.639 42.5121 416.639H42.715L43.8305 424.701L56.1522 424.093L56.4564 415.98H56.6592C62.6933 414.458 66.6991 411.162 66.7498 411.162L66.9019 411.01L73.3417 415.929L81.6068 406.751L76.0798 400.818L76.1812 400.615C79.0715 396.153 79.9335 390.17 79.9335 390.119V389.916L87.9958 388.801L87.3874 376.479L79.2743 376.175V375.972C77.601 369.532 74.4572 365.932 74.4572 365.882L74.3051 365.729L79.2236 359.239L70.0457 350.974L64.1131 356.501L63.9103 356.349C60.2594 353.763 53.4647 352.596 53.414 352.596H53.2112L52.0957 344.534L39.774 345.143L39.4697 353.205H39.2669C33.385 354.828 29.227 358.022 29.1763 358.073L29.0242 358.225L22.5845 353.306L14.3193 362.484L19.8463 368.417L19.7449 368.62C16.8547 373.234 15.9927 379.065 15.9927 379.116V379.319L7.93033 380.434V380.485Z" fill="#1A120E"/>
<path d="M25.8811 392.604C21.4696 380.384 27.808 366.896 39.9775 362.484C52.1978 358.073 65.6857 364.411 70.0971 376.581C74.5086 388.801 68.1703 402.289 56.0007 406.7C43.7805 411.112 30.2926 404.773 25.8811 392.604ZM69.5901 376.783C65.28 364.867 52.0964 358.681 40.1803 362.991C28.2643 367.301 22.0781 380.485 26.3882 392.401C30.6982 404.317 43.8819 410.503 55.7979 406.193C67.7139 401.883 73.9001 388.699 69.5901 376.783Z" fill="#1A120E"/>
<path d="M152.24 398.03L166.387 393.567L164.359 384.389C168.213 382.158 171.559 379.319 174.348 376.023L183.019 379.623L189.864 366.49L181.954 361.47C183.069 357.312 183.475 352.951 183.12 348.54L191.791 344.991L187.38 330.843L178.202 332.872C175.971 329.018 173.131 325.671 169.835 322.883L173.435 314.212L160.302 307.366L155.232 315.277C151.074 314.161 146.713 313.755 142.301 314.11L138.752 305.44L124.605 309.902L126.633 319.08C122.83 321.311 119.433 324.15 116.695 327.446L108.024 323.846L101.179 336.979L109.089 341.999C107.973 346.157 107.568 350.518 107.923 354.929L99.2517 358.478L103.663 372.626L112.841 370.597C115.072 374.451 117.861 377.798 121.157 380.586L117.557 389.257L130.69 396.103L135.76 388.192C139.918 389.308 144.279 389.714 148.691 389.359L152.291 398.03H152.24ZM119.991 359.746C115.579 345.65 123.388 330.641 137.484 326.229C151.581 321.818 166.59 329.626 171.001 343.723C175.413 357.819 167.604 372.828 153.508 377.24C139.411 381.651 124.402 373.843 119.991 359.746Z" fill="url(#paint9_linear_79_20)"/>
<path d="M125.67 316.24L124.25 309.699L134.898 306.352L135.101 306.961L125.01 310.155L126.329 316.088L125.67 316.24Z" fill="#1A120E"/>
<path d="M99.3529 358.783L99.0994 358.174L107.567 354.726C106.908 349.808 108.074 344.889 108.074 344.839L108.734 344.991C108.734 344.991 107.567 350.011 108.227 354.878V355.132L99.3529 358.783Z" fill="#1A120E"/>
<path d="M135.456 376.885L135.659 376.276C155.383 383.629 166.64 367.555 166.742 367.403L167.299 367.758C167.299 367.758 155.586 384.44 135.405 376.885H135.456Z" fill="#1A120E"/>
<path d="M169.024 380.941C171.965 378.355 174.095 375.871 174.095 375.82L174.247 375.617L177.441 376.936L177.188 377.544L174.45 376.378C173.892 376.986 171.965 379.167 169.48 381.347L169.024 380.84V380.941Z" fill="#1A120E"/>
<path d="M106.503 375.617L101.889 360.912L110.61 357.312C110.509 356.044 110.103 350.112 111.726 344.686L103.765 339.615L110.914 325.975L119.636 329.626C120.397 328.713 123.946 324.606 129.321 321.513L127.293 312.285L141.997 307.67L145.598 316.392C146.967 316.29 153.66 315.885 158.224 317.507L163.294 309.546L176.934 316.696L173.283 325.367C174.247 326.077 178.1 329.119 181.396 335.102L190.625 333.074L195.239 347.779L186.518 351.379C186.619 352.647 187.076 358.732 185.402 364.005L193.363 369.076L186.214 382.716L177.492 379.065C176.731 380.028 173.334 384.136 167.807 387.178L169.835 396.407L155.13 401.021L151.53 392.299C150.313 392.451 144.888 392.908 138.904 391.184L133.834 399.145L120.194 391.995L123.845 383.274C122.83 382.564 118.723 379.319 115.732 373.589L106.503 375.617ZM102.7 361.267L106.959 374.856L116.086 372.828L116.188 373.031C119.535 379.572 124.402 382.868 124.402 382.868L124.605 383.02L121.005 391.64L133.631 398.232L138.651 390.373H138.904C145.598 392.451 151.632 391.589 151.733 391.589H151.987L155.536 400.21L169.125 395.95L167.097 386.823L167.3 386.722C173.638 383.324 177.137 378.507 177.188 378.456L177.34 378.254L185.96 381.854L192.552 369.228L184.692 364.208L184.794 363.954C186.721 358.174 185.96 351.227 185.96 351.126V350.872L194.58 347.323L190.321 333.733L181.194 335.762L181.092 335.559C177.441 328.866 172.878 325.722 172.827 325.722L172.624 325.57L176.224 316.95L163.598 310.358L158.578 318.217L158.325 318.116C153.508 316.29 145.598 316.95 145.496 317H145.243L141.693 308.38L128.104 312.64L130.132 321.767L129.929 321.868C123.845 325.316 120.092 330.083 120.042 330.133L119.889 330.336L111.269 326.736L104.678 339.362L112.537 344.382L112.436 344.635C110.559 350.619 111.269 357.363 111.269 357.464V357.718L102.649 361.267H102.7Z" fill="#1A120E"/>
<path d="M126.227 369.634C117.81 357.312 120.953 340.427 133.275 331.959C145.597 323.491 162.482 326.685 170.95 339.007C179.418 351.329 176.223 368.214 163.902 376.682C151.58 385.099 134.695 381.955 126.227 369.634ZM170.392 339.362C162.178 327.344 145.647 324.251 133.63 332.466C121.613 340.68 118.519 357.21 126.785 369.228C134.999 381.245 151.529 384.338 163.547 376.124C175.564 367.859 178.657 351.379 170.443 339.362H170.392Z" fill="#1A120E"/>
<path d="M276.419 296.008H17.8665C10.6662 296.008 4.83496 290.177 4.83496 282.977V63.9755C4.83496 58.8034 9.0436 54.5441 14.2664 54.5441H280.07C285.242 54.5441 289.501 58.7527 289.501 63.9755V282.977C289.501 290.177 283.67 296.008 276.469 296.008H276.419ZM14.2664 57.4851C10.7169 57.4851 7.77594 60.3753 7.77594 63.9755V282.977C7.77594 288.554 12.2888 293.067 17.8665 293.067H276.419C281.996 293.067 286.509 288.554 286.509 282.977V63.9755C286.509 60.426 283.619 57.4851 280.019 57.4851H14.2664Z" fill="#FF6645"/>
<path d="M259.229 63.3162C258.165 63.3162 257.302 64.1782 257.302 65.2431C257.302 66.3079 258.165 67.1699 259.229 67.1699C260.294 67.1699 261.156 66.3079 261.156 65.2431C261.156 64.1782 260.294 63.3162 259.229 63.3162Z" fill="#2B173F"/>
<path d="M267.343 63.3163C266.278 63.3163 265.416 64.1784 265.416 65.2432C265.416 66.308 266.278 67.17 267.343 67.17C268.407 67.17 269.269 66.308 269.269 65.2432C269.269 64.1784 268.407 63.3163 267.343 63.3163Z" fill="url(#paint10_linear_79_20)"/>
<path d="M275.505 67.17C276.57 67.17 277.432 66.3074 277.432 65.2432C277.432 64.179 276.57 63.3163 275.505 63.3163C274.441 63.3163 273.579 64.179 273.579 65.2432C273.579 66.3074 274.441 67.17 275.505 67.17Z" fill="url(#paint11_linear_79_20)"/>
<path d="M205.887 251.184C205.126 251.133 205.025 251.133 204.872 251.082H204.771L204.923 249.764C205.278 249.764 205.633 249.815 205.988 249.865L205.887 251.133V251.184Z" fill="#1A120E"/>
<path d="M269.32 183.795C269.32 183.541 269.219 183.288 269.219 183.034C269.219 182.781 269.168 182.578 269.117 182.325V182.122C265.162 157.985 246.604 138.514 222.873 133.596C222.721 133.596 222.569 133.545 222.417 133.494C221.656 133.342 220.895 133.241 219.983 133.038C219.983 133.038 219.932 133.038 219.881 133.038C219.831 133.038 219.729 133.038 219.628 133.038C219.628 133.038 219.577 133.038 219.526 133.038H219.425L215.013 132.125L207.915 179.992V180.195L207.864 180.448L206.393 190.488L155.383 191.097H154.876L147.827 191.198V191.857C147.827 192.871 147.827 193.733 147.929 194.545C148.943 218.022 165.423 243.02 195.238 249.713C195.694 249.815 196.1 249.916 196.556 250.018C199.193 250.575 201.982 250.93 204.821 251.184C205.126 251.184 205.481 251.184 205.886 251.285C206.444 251.285 207.154 251.387 208.219 251.437C208.878 251.437 209.689 251.437 210.551 251.437C212.884 251.437 215.875 251.285 219.121 250.829C232.609 248.851 245.133 242.057 254.412 231.763C258.317 227.453 261.562 222.585 263.996 217.413C264.706 215.943 265.365 214.422 265.973 212.85C266.126 212.444 266.278 212.039 266.43 211.684C266.481 211.481 266.582 211.227 266.633 211.024C268.509 205.649 269.574 200.072 269.776 194.342C269.776 194.139 269.776 193.886 269.776 193.683C269.776 192.871 269.776 192.06 269.776 191.249C269.776 189.373 269.675 186.99 269.269 183.846L269.32 183.795ZM268.458 194.19C268.103 202.049 266.227 209.503 263.083 216.298C262.982 216.501 262.88 216.703 262.779 216.906C262.678 217.109 262.576 217.363 262.475 217.566C262.424 217.718 262.323 217.87 262.272 217.971C253.956 234.501 238.034 246.57 218.867 249.409C214.557 250.068 210.653 250.068 208.219 249.967C207.103 249.967 206.343 249.866 205.734 249.815C205.633 249.815 205.582 249.815 205.481 249.815C205.278 249.815 205.075 249.815 204.872 249.764H204.467C202.033 249.561 199.649 249.206 197.317 248.75C196.861 248.649 196.455 248.547 195.999 248.446C166.487 242.107 150.109 217.464 149.095 194.342C149.095 193.733 149.044 193.074 149.044 192.364H154.977L155.231 192.263H155.433L207.357 191.655L209.03 180.296V180.043L209.081 179.84L215.926 133.545L219.07 134.153H219.171C219.171 134.153 219.273 134.153 219.324 134.153C219.425 134.153 219.476 134.153 219.577 134.153C219.983 134.204 220.287 134.255 220.642 134.306C221.149 134.407 221.605 134.458 222.062 134.559C222.619 134.66 223.127 134.762 223.684 134.914C246.35 140.137 263.945 158.898 267.748 182.122V182.325C267.748 182.325 267.85 182.781 267.85 183.034C267.9 183.288 267.951 183.491 267.951 183.744C268.357 186.837 268.407 189.119 268.458 190.995C268.458 191.705 268.458 192.415 268.458 193.074C268.458 193.379 268.458 193.683 268.458 193.987V194.19Z" fill="#1A120E"/>
<path d="M205.887 251.184C205.126 251.133 205.025 251.133 204.872 251.082H204.771L204.923 249.764C205.278 249.764 205.633 249.815 205.988 249.865L205.887 251.133V251.184Z" fill="#1A120E"/>
<path d="M121.916 164.983V165.743L184.235 165.084L153.202 112.451L150.312 113.871C133.123 124.266 121.714 143.331 121.916 164.932V164.983Z" fill="url(#paint12_linear_79_20)"/>
<path d="M274.442 172.893C271.146 147.438 250.863 126.344 225.155 122.643L221.251 121.882L220.186 129.032L219.679 132.531V132.987L219.425 134.255L212.631 180.093H209.132H207.813L154.166 180.702C154.166 181.614 154.166 182.476 154.267 183.389C154.369 185.874 154.622 188.409 155.079 190.944C155.129 191.35 155.231 191.806 155.282 192.263C158.932 212.343 172.42 233.69 201.475 238.609C201.932 238.71 202.337 238.761 202.794 238.811C209.335 239.775 216.636 239.927 224.749 239.065C239.911 237.442 253.196 229.279 262.272 217.515C262.475 217.261 262.627 217.058 262.779 216.855C264.047 215.131 265.264 213.407 266.379 211.531C269.523 206.258 271.906 200.477 273.326 194.393C274.188 190.792 274.695 187.04 274.898 183.186C274.898 182.172 274.949 181.158 274.949 180.144C274.949 178.42 274.847 176.087 274.442 172.842V172.893Z" fill="url(#paint13_linear_79_20)"/>
<path d="M205.481 172.487L214.659 109.459L210.805 108.699C205.583 107.938 200.005 107.786 193.92 108.699C186.061 109.814 178.657 112.552 172.167 116.507L205.532 172.487H205.481Z" fill="url(#paint14_linear_79_20)"/>
<path d="M172.674 263.81L172.471 262.542C187.835 260.007 198.18 250.322 203.301 233.741C207.104 221.318 206.343 209.554 206.343 209.402L207.611 209.3C207.611 209.3 208.372 221.47 204.518 234.096C199.346 250.93 188.343 261.173 172.674 263.81Z" fill="#1A120E"/>
<path d="M175.768 257.066L176.782 257.827L173.029 262.999L178.455 266.396L177.796 267.461L171.153 263.354L175.768 257.066Z" fill="#1A120E"/>
<path d="M182.004 113.718C181.75 113.516 175.26 108.952 174.398 101.701C173.891 97.3402 175.513 92.9795 179.265 88.7201L180.229 89.5821C176.73 93.5372 175.209 97.5431 175.716 101.549C176.527 108.242 182.714 112.603 182.764 112.654L182.004 113.718Z" fill="#1A120E"/>
<path d="M181.192 95.9204L179.874 96.0219L179.468 89.6328L173.13 90.4949L172.927 89.2272L180.685 88.1624L181.192 95.9204Z" fill="#1A120E"/>
<path d="M121.915 186.482C118.619 166.758 133.831 160.673 133.983 160.622L134.44 161.839C133.831 162.042 120.09 167.62 123.183 186.28L121.915 186.482Z" fill="#1A120E"/>
<path d="M116.794 182.831L117.605 181.817L122.575 185.874L126.226 180.651L127.29 181.412L122.778 187.801L116.794 182.831Z" fill="#1A120E"/>
<path d="M233.166 85.2724H199.294V86.4894H233.166V85.2724Z" fill="#1A120E"/>
<path d="M222.011 88.4669H199.294V89.6839H222.011V88.4669Z" fill="#1A120E"/>
<path d="M229.008 91.6107H199.294V92.8276H229.008V91.6107Z" fill="#1A120E"/>
<path d="M197.165 89.0245C197.165 91.8641 194.883 94.1459 192.044 94.1459C189.204 94.1459 186.922 91.8641 186.922 89.0245C186.922 86.185 189.204 83.9032 192.044 83.9032C194.883 83.9032 197.165 86.185 197.165 89.0245Z" fill="url(#paint15_linear_79_20)"/>
<path d="M218.868 272.379H184.996V273.596H218.868V272.379Z" fill="#1A120E"/>
<path d="M207.712 275.574H184.996V276.791H207.712V275.574Z" fill="#1A120E"/>
<path d="M214.71 278.718H184.996V279.935H214.71V278.718Z" fill="#1A120E"/>
<path d="M182.916 276.132C182.916 278.971 180.634 281.253 177.794 281.253C174.955 281.253 172.673 278.971 172.673 276.132C172.673 273.292 174.955 271.01 177.794 271.01C180.634 271.01 182.916 273.292 182.916 276.132Z" fill="url(#paint16_linear_79_20)"/>
<path d="M128.357 199.869H94.4846V201.086H128.357V199.869Z" fill="#1A120E"/>
<path d="M128.356 196.725H105.64V197.942H128.356V196.725Z" fill="#1A120E"/>
<path d="M128.357 193.53H98.6428V194.747H128.357V193.53Z" fill="#1A120E"/>
<path d="M141.794 197.03C141.794 199.869 139.512 202.151 136.672 202.151C133.833 202.151 131.551 199.869 131.551 197.03C131.551 194.19 133.833 191.908 136.672 191.908C139.512 191.908 141.794 194.19 141.794 197.03Z" fill="url(#paint17_linear_79_20)"/>
<path d="M100.061 232.219H30.8975V236.478H100.061V232.219Z" fill="#1A120E"/>
<path d="M52.9548 217.21H30.8975V221.469H52.9548V217.21Z" fill="#1A120E"/>
<path d="M77.9026 217.21H62.4878V221.47H77.9026V217.21Z" fill="#1A120E"/>
<path d="M92.7593 278.413H30.8975V282.672H92.7593V278.413Z" fill="#1A120E"/>
<path d="M52.9548 263.404H30.8975V267.663H52.9548V263.404Z" fill="#1A120E"/>
<path d="M103.154 263.404H62.4878V267.663H103.154V263.404Z" fill="#1A120E"/>
<path d="M77.091 248.344H30.8975V252.603H77.091V248.344Z" fill="#1A120E"/>
<path d="M106.146 248.344H83.3284V252.603H106.146V248.344Z" fill="#1A120E"/>
<path d="M100.061 102.715H30.8975V106.975H100.061V102.715Z" fill="#1A120E"/>
<path d="M52.9548 87.6555H30.8975V91.9149H52.9548V87.6555Z" fill="#1A120E"/>
<path d="M77.9026 87.6555H62.4878V91.9149H77.9026V87.6555Z" fill="#1A120E"/>
<path d="M92.7593 148.909H30.8975V153.168H92.7593V148.909Z" fill="#1A120E"/>
<path d="M52.9548 133.849H30.8975V138.108H52.9548V133.849Z" fill="#1A120E"/>
<path d="M103.154 133.849H62.4878V138.108H103.154V133.849Z" fill="#1A120E"/>
<path d="M77.091 118.789H30.8975V123.049H77.091V118.789Z" fill="#1A120E"/>
<path d="M106.146 118.789H83.3284V123.049H106.146V118.789Z" fill="#1A120E"/>
<path d="M287.979 76.3481H88.2974V79.2891H287.979V76.3481Z" fill="#FF6645"/>
<path d="M397.913 213.458L498.16 213.813C501.912 213.813 505.005 210.771 505.005 207.019L505.259 139.934C505.259 136.182 502.216 133.089 498.464 133.089L398.218 132.734C394.465 132.734 391.372 135.776 391.372 139.528L391.119 206.613C391.119 210.365 394.161 213.458 397.913 213.458Z" fill="url(#paint18_linear_79_20)"/>
<path d="M466.62 172.437L431.886 149.923C430.568 149.061 428.844 150.024 428.793 151.596L428.641 196.421C428.641 197.993 430.365 198.956 431.683 198.094L466.569 175.834C467.786 175.073 467.786 173.299 466.569 172.487L466.62 172.437Z" fill="white"/>
<mask id="mask0_79_20" style="mask-type:luminance" maskUnits="userSpaceOnUse" x="106" y="115" width="352" height="344">
<path d="M457.493 115.797H106.502V458.218H457.493V115.797Z" fill="white"/>
</mask>
<g mask="url(#mask0_79_20)">
<path d="M375.702 363.245C375.499 366.895 394.616 371.003 418.397 372.422C442.229 373.842 450.798 370.648 451.001 367.048C451.204 363.397 442.99 360.709 419.208 359.289C395.376 357.87 375.905 359.644 375.702 363.245Z" fill="#1A120E"/>
<path d="M390.659 476.066C383.56 477.587 372.151 478.145 372.151 478.145C372.151 478.145 389.898 382.766 393.296 355.74C394.36 347.12 434.571 329.626 437.664 366.388C440.148 395.392 395.121 442.752 394.31 466.736C394.157 471.3 392.028 475.813 390.659 476.117V476.066Z" fill="#FFB099"/>
<path d="M393.652 473.227C393.652 473.227 398.063 505.831 387.364 500.558C375.904 494.878 353.695 499.949 353.695 499.949C353.695 499.949 354.506 479.869 363.329 476.624C384.22 469.018 384.22 454.212 384.22 454.212L393.652 473.227Z" fill="#FFB099"/>
<path d="M344.873 241.803C354.913 234.399 378.998 232.422 397.05 251.995C415.101 271.517 437.412 306.251 451.001 366.693C451.001 366.693 413.073 350.619 375.702 363.498C375.702 363.498 343.656 319.485 336.151 295.45C328.647 271.415 333.768 250.017 344.822 241.853L344.873 241.803Z" fill="#168651"/>
<path d="M413.834 455.987C417.84 472.873 419.767 585.086 411.045 602.985C404.808 615.713 334.478 647.353 327.937 611.808C322.207 580.624 305.221 476.422 306.691 457.863C308.111 439.964 401.766 405.23 413.834 455.987Z" fill="url(#paint19_linear_79_20)"/>
<path d="M303.902 420.898C304.714 408.982 346.141 389.156 377.579 391.996L386.655 502.485C383.917 505.68 375.145 518.863 373.522 522.463C361.048 549.845 349.69 568.86 321.548 576.466C313.689 522.261 302.939 435.096 303.902 420.898Z" fill="#1A120E"/>
<path d="M381.686 441.739C379.1 458.928 324.387 600.5 309.581 613.836C299.034 623.318 260.092 625.6 240.265 595.43C220.439 565.259 273.275 420.239 281.541 403.557C289.552 387.483 389.393 390.119 381.686 441.739Z" fill="url(#paint20_linear_79_20)"/>
<path d="M286.054 236.225C261.411 251.234 251.827 288.301 250.103 351.988C248.329 415.675 236.97 457.102 243.968 473.633C243.968 473.633 317.492 540.565 424.534 497.87C424.534 497.87 421.288 479.667 413.987 400.717C406.685 321.818 406.888 300.369 396.391 269.59C385.895 238.811 336.051 210.72 322.563 218.123C309.075 225.526 305.12 224.664 286.054 236.225Z" fill="#2BB573"/>
<path d="M219.679 268.323C219.679 268.323 203.199 277.906 189.863 286.273C187.075 282.825 184.235 279.275 181.345 275.827C173.587 265.179 150.363 229.836 150.262 229.684C144.937 217.92 153.76 214.827 152.138 209.959C151.073 206.714 141.185 192.111 137.078 189.423C137.078 189.373 137.027 189.322 136.977 189.271C131.703 184.606 116.44 176.95 111.522 173.806C109.342 172.386 109.544 175.58 112.536 179.738C116.136 184.758 122.931 190.285 127.647 193.277C126.176 195.305 124.807 197.587 121.612 199.666C117.759 202.201 118.367 206.917 116.339 210.619C114.311 214.32 117.759 219.594 122.373 223.498C127.038 227.402 133.224 227.453 133.934 238.101C133.934 238.101 152.188 316.139 161.671 335.103C167.755 347.272 175.564 351.38 183.018 350.619C201.982 350.721 235.956 339.514 259.94 321.412C285.344 302.194 254.463 251.032 219.679 268.424V268.323Z" fill="#FFB099"/>
<path d="M319.013 245.556C325.655 253.516 330.523 265.28 316.325 286.07C302.128 306.86 262.83 334.647 228.857 349.859C228.857 349.859 186.922 311.22 199.041 273.14C199.041 273.14 257.202 244.795 276.724 237.392C296.296 229.989 311.66 236.783 318.962 245.556H319.013Z" fill="#168651"/>
<path d="M244.677 312.893C244.677 312.893 265.517 324.962 285.242 307.569L284.228 306.403C265.365 323.086 245.691 311.677 245.488 311.575L244.677 312.893Z" fill="#1A120E"/>
<path d="M211.819 331.756C219.475 343.165 227.639 350.619 227.791 350.771L228.096 351.025L228.501 350.923C229.008 350.822 277.686 339.768 305.017 309.293L303.851 308.279C278.143 336.979 233.166 348.236 228.501 349.351C226.321 347.323 212.579 333.937 205.075 316.342L203.655 316.95C205.937 322.325 208.827 327.345 211.819 331.756Z" fill="#1A120E"/>
<path d="M355.319 439.254C374.081 439.254 385.692 428.961 385.844 428.808L384.83 427.642C384.577 427.896 358.767 450.612 321.802 426.78L320.94 428.099C333.921 436.465 345.584 439.254 355.268 439.254H355.319Z" fill="#1A120E"/>
<path d="M311.052 217.008C311.052 217.008 316.477 211.227 322.714 199.818L312.015 202.455L311.001 217.058L311.052 217.008Z" fill="#1A120E"/>
<path d="M292.95 172.233C294.471 160.064 293.913 141.505 308.263 144.041C311.914 144.7 328.901 146.475 332.653 148.351C341.577 152.762 338.383 166.504 340.766 178.927C341.476 182.628 341.121 189.778 339.752 193.074L343.403 192.719L344.316 222.484C344.316 222.484 324.895 235.566 310.646 224.36L311.711 208.438C308.365 209.249 305.627 209.604 304.105 209.3C293.711 207.12 291.277 185.924 292.95 172.284V172.233Z" fill="#FFB099"/>
<path d="M298.883 150.582C300.201 151.19 304.207 152.864 304.207 152.864C304.207 152.864 305.018 163.157 306.489 167.011C307.959 170.865 302.635 184.251 295.485 185.367C288.336 186.482 292.646 194.24 293.203 197.536C293.964 202.252 289.502 207.12 298.274 210.517C304.156 212.748 319.114 209.807 315.464 200.325C311.813 190.843 305.424 178.978 312.32 168.887C319.216 158.746 310.849 181.462 323.526 189.981C327.025 192.364 329.814 194.291 331.994 195.914C335.493 198.449 340.056 198.246 343.707 195.914C344.113 195.66 344.518 195.457 345.025 195.305C348.727 194.088 359.477 181.716 360.237 165.439C360.998 149.162 353.747 143.432 339.397 140.187C324.996 136.942 330.321 131.009 321.346 129.082C312.371 127.156 301.215 116.051 301.215 116.051C301.215 116.051 286.967 144.751 298.933 150.582H298.883Z" fill="#1A120E"/>
<path d="M327.177 178.268C324.54 183.44 318.81 185.773 314.399 183.541C309.987 181.31 308.517 175.276 311.153 170.104C313.79 164.932 319.52 162.549 323.931 164.831C328.343 167.113 329.813 173.096 327.177 178.268Z" fill="#FFB099"/>
<path d="M313.892 179.688C313.892 179.688 314.348 180.144 314.652 180.296C315.261 180.601 315.92 180.651 316.579 180.347C317.999 179.739 318.1 178.623 318.151 177.71C318.202 176.848 318.303 175.986 319.368 175.124C320.23 174.414 321.143 174.161 321.954 173.907C323.374 173.502 324.946 173.045 324.641 170.307C324.54 169.394 324.134 168.634 323.374 168.076C321.295 166.453 317.34 166.961 317.187 166.961L317.39 168.482C318.354 168.38 321.143 168.279 322.461 169.293C322.867 169.597 323.069 170.003 323.12 170.459C323.272 171.93 322.917 172.031 321.548 172.386C320.636 172.64 319.52 172.944 318.404 173.907C316.833 175.226 316.731 176.595 316.63 177.558C316.579 178.42 316.528 178.623 315.971 178.877C315.666 179.029 315.514 178.927 315.362 178.877C314.754 178.572 314.348 177.305 314.247 176.747L312.725 177.051C312.725 177.051 313.03 178.674 313.892 179.637V179.688Z" fill="#1A120E"/>
<path d="M408.307 344.027H409.625C408.814 302.853 396.391 267.866 396.289 267.511L395.073 267.967C395.174 268.322 407.496 303.158 408.358 344.027H408.307Z" fill="#1A120E"/>
</g>
<path d="M438.279 458.611H16.9438V462H438.279V458.611Z" fill="#131313"/>
<defs>
<radialGradient id="paint0_radial_79_20" cx="0" cy="0" r="1" gradientUnits="userSpaceOnUse" gradientTransform="translate(274.29 77.9195) scale(62.1661 62.1661)">
<stop stop-color="#A3D6FF"/>
<stop offset="1" stop-color="#E1F1FF"/>
</radialGradient>
<radialGradient id="paint1_radial_79_20" cx="0" cy="0" r="1" gradientUnits="userSpaceOnUse" gradientTransform="translate(227.235 272.075) scale(209.164 209.164)">
<stop stop-color="#A3D6FF"/>
<stop offset="1" stop-color="#E1F1FF"/>
</radialGradient>
<linearGradient id="paint2_linear_79_20" x1="330.675" y1="34.8189" x2="479.347" y2="95.5146" gradientUnits="userSpaceOnUse">
<stop stop-color="#FFA223"/>
<stop offset="1" stop-color="#FFB445"/>
</linearGradient>
<linearGradient id="paint3_linear_79_20" x1="311.964" y1="80.7084" x2="460.635" y2="141.404" gradientUnits="userSpaceOnUse">
<stop stop-color="#FFA223"/>
<stop offset="1" stop-color="#FFB445"/>
</linearGradient>
<linearGradient id="paint4_linear_79_20" x1="257.258" y1="-1.16563" x2="261.237" y2="17.5921" gradientUnits="userSpaceOnUse">
<stop stop-color="#001B8D"/>
<stop offset="1" stop-color="#0073D5"/>
</linearGradient>
<linearGradient id="paint5_linear_79_20" x1="179.553" y1="419.641" x2="198.807" y2="419.641" gradientUnits="userSpaceOnUse">
<stop stop-color="#FF4428"/>
<stop offset="1" stop-color="#FF7E3B"/>
</linearGradient>
<linearGradient id="paint6_linear_79_20" x1="442.797" y1="271.665" x2="452.963" y2="271.665" gradientUnits="userSpaceOnUse">
<stop stop-color="#007D90"/>
<stop offset="1" stop-color="#00BDD2"/>
</linearGradient>
<linearGradient id="paint7_linear_79_20" x1="109.57" y1="10.731" x2="119.736" y2="10.731" gradientUnits="userSpaceOnUse">
<stop stop-color="#FF4428"/>
<stop offset="1" stop-color="#FF7E3B"/>
</linearGradient>
<linearGradient id="paint8_linear_79_20" x1="32.4575" y1="344.207" x2="59.8046" y2="419.835" gradientUnits="userSpaceOnUse">
<stop stop-color="#007D90"/>
<stop offset="1" stop-color="#00BDD2"/>
</linearGradient>
<linearGradient id="paint9_linear_79_20" x1="119.168" y1="313.283" x2="171.521" y2="389.713" gradientUnits="userSpaceOnUse">
<stop stop-color="#FFA223"/>
<stop offset="1" stop-color="#FFB445"/>
</linearGradient>
<linearGradient id="paint10_linear_79_20" x1="265.416" y1="65.2432" x2="269.269" y2="65.2432" gradientUnits="userSpaceOnUse">
<stop stop-color="#001B8D"/>
<stop offset="1" stop-color="#0073D5"/>
</linearGradient>
<linearGradient id="paint11_linear_79_20" x1="273.579" y1="65.2432" x2="277.432" y2="65.2432" gradientUnits="userSpaceOnUse">
<stop stop-color="#FF4428"/>
<stop offset="1" stop-color="#FF7E3B"/>
</linearGradient>
<linearGradient id="paint12_linear_79_20" x1="121.866" y1="139.123" x2="184.235" y2="139.123" gradientUnits="userSpaceOnUse">
<stop stop-color="#007D90"/>
<stop offset="1" stop-color="#00BDD2"/>
</linearGradient>
<linearGradient id="paint13_linear_79_20" x1="154.166" y1="180.803" x2="275" y2="180.803" gradientUnits="userSpaceOnUse">
<stop stop-color="#FF4428"/>
<stop offset="1" stop-color="#FF7E3B"/>
</linearGradient>
<linearGradient id="paint14_linear_79_20" x1="172.167" y1="140.289" x2="214.71" y2="140.289" gradientUnits="userSpaceOnUse">
<stop stop-color="#FFA223"/>
<stop offset="1" stop-color="#FFB445"/>
</linearGradient>
<linearGradient id="paint15_linear_79_20" x1="186.922" y1="89.0245" x2="197.165" y2="89.0245" gradientUnits="userSpaceOnUse">
<stop stop-color="#FFA223"/>
<stop offset="1" stop-color="#FFB445"/>
</linearGradient>
<linearGradient id="paint16_linear_79_20" x1="172.673" y1="276.132" x2="182.916" y2="276.132" gradientUnits="userSpaceOnUse">
<stop stop-color="#FF4428"/>
<stop offset="1" stop-color="#FF7E3B"/>
</linearGradient>
<linearGradient id="paint17_linear_79_20" x1="131.5" y1="197.03" x2="141.794" y2="197.03" gradientUnits="userSpaceOnUse">
<stop stop-color="#FF4428"/>
<stop offset="1" stop-color="#FF7E3B"/>
</linearGradient>
<linearGradient id="paint18_linear_79_20" x1="389.355" y1="169.237" x2="507.075" y2="177.262" gradientUnits="userSpaceOnUse">
<stop stop-color="#FF4428"/>
<stop offset="1" stop-color="#FF7E3B"/>
</linearGradient>
<linearGradient id="paint19_linear_79_20" x1="370.886" y1="771.483" x2="362.012" y2="490.214" gradientUnits="userSpaceOnUse">
<stop stop-color="#FF4428"/>
<stop offset="1" stop-color="#FF7E3B"/>
</linearGradient>
<linearGradient id="paint20_linear_79_20" x1="317.39" y1="773.156" x2="308.567" y2="491.887" gradientUnits="userSpaceOnUse">
<stop stop-color="#FF4428"/>
<stop offset="1" stop-color="#FF7E3B"/>
</linearGradient>
</defs>
</svg>
