<svg width="145" height="137" viewBox="0 0 145 137" fill="none" xmlns="http://www.w3.org/2000/svg">
<path d="M13.4423 115.763H4.50427C4.09864 115.763 3.87995 115.854 3.73181 116.002C3.56603 116.168 3.47432 116.394 3.47432 116.651C3.47432 116.93 3.60483 117.17 3.78825 117.322C3.93639 117.452 4.11981 117.509 4.50427 117.509H9.96796C11.3647 117.509 12.303 117.953 12.9661 118.641C13.6292 119.329 14.0313 120.256 14.0313 121.24C14.0313 122.15 13.6821 123.025 13.1107 123.692C12.43 124.489 11.4353 124.993 9.96443 124.993H0.33156V121.78H9.37891C9.89388 121.78 10.1514 121.667 10.3172 121.463C10.4477 121.314 10.5182 121.11 10.5182 120.888C10.5182 120.627 10.4265 120.387 10.2607 120.217C10.0949 120.031 9.85509 119.939 9.37891 119.939H4.32086C2.66659 119.939 1.71071 119.494 1.04759 118.807C0.384468 118.119 0 117.209 0 116.189C0 115.17 0.405632 114.256 1.06522 113.572C1.72482 112.888 2.66659 112.44 4.32086 112.44H13.4423V115.766V115.763Z" fill="white"/>
<path d="M34.3696 112.436C36.1332 112.436 37.276 112.955 38.1014 113.791C38.9656 114.665 39.4805 115.872 39.4805 117.134C39.4805 118.249 39.0749 119.307 38.3942 120.143C37.5476 121.166 36.2778 121.833 34.3661 121.833H28.6449V124.99H25.3152V113.212C25.3152 112.694 25.5903 112.433 26.1229 112.433H34.3625L34.3696 112.436ZM34.4437 118.75C35.1809 118.75 35.6041 118.528 35.8792 118.154C36.0627 117.914 36.172 117.614 36.172 117.261C36.172 116.891 36.0627 116.574 35.8581 116.313C35.583 115.977 35.1597 115.755 34.4437 115.755H28.8883C28.7401 115.755 28.6484 115.829 28.6484 116.016V118.746H34.4401L34.4437 118.75Z" fill="white"/>
<path d="M48.4218 124.994C46.1961 124.994 44.5595 124.214 43.4202 122.952C42.4255 121.855 41.8188 120.37 41.8188 118.715C41.8188 116.895 42.5913 115.241 43.8223 114.091C44.9263 113.068 46.4148 112.437 48.4218 112.437H51.032C53.0354 112.437 54.5275 113.068 55.6315 114.091C56.8625 115.241 57.635 116.895 57.635 118.715C57.635 120.37 57.0283 121.855 56.0336 122.952C54.8943 124.214 53.2577 124.994 51.032 124.994H48.4218ZM48.4218 115.763C47.3002 115.763 46.6018 116.081 46.0692 116.582C45.4978 117.121 45.1486 117.901 45.1486 118.737C45.1486 119.499 45.4413 120.204 45.921 120.722C46.4536 121.319 47.2437 121.689 48.4218 121.689H51.032C52.2101 121.689 53.0002 121.319 53.5328 120.722C54.0125 120.204 54.3052 119.495 54.3052 118.737C54.3052 117.901 53.9561 117.121 53.3846 116.582C52.852 116.081 52.1536 115.763 51.032 115.763H48.4218Z" fill="white"/>
<path d="M70.1953 115.519L68.2659 122.447C67.7332 124.38 66.5728 125.251 64.661 125.251C62.4001 125.251 61.3137 124.045 61.0562 122.447L59.5113 113.029C59.476 112.789 59.4548 112.62 59.4548 112.433H62.968C62.968 112.563 62.9856 112.75 63.0032 112.916L64.3083 121.498C64.3436 121.794 64.4917 121.925 64.7492 121.925C64.9714 121.925 65.116 121.833 65.1901 121.533L67.0842 114.793C67.5992 112.99 68.5939 112.154 70.5974 112.154C72.6008 112.154 73.5214 112.99 73.98 114.697L75.8388 121.533C75.9129 121.829 76.0575 121.925 76.2797 121.925C76.5372 121.925 76.6642 121.794 76.7206 121.498L78.1351 112.916C78.1703 112.729 78.1703 112.546 78.1703 112.433H81.6446C81.6446 112.62 81.627 112.768 81.5882 113.029L79.9339 122.464C79.6412 124.119 78.5372 125.251 76.2938 125.251C74.4174 125.251 73.2781 124.341 72.7807 122.447L70.9959 115.519C70.9219 115.241 70.7949 115.149 70.5903 115.149C70.3857 115.149 70.2587 115.241 70.1847 115.519H70.1953Z" fill="white"/>
<path d="M96.9531 112.437V115.763H87.5002C87.2991 115.763 87.2074 115.876 87.2074 116.081V117.509H96.9002V119.925H87.2074V121.449C87.2074 121.671 87.2991 121.784 87.5002 121.784H96.9531V124.997H85.6237C84.4667 124.997 83.8777 124.423 83.8777 123.251V114.13C83.8777 112.998 84.4667 112.441 85.6448 112.441H96.9567L96.9531 112.437Z" fill="white"/>
<path d="M103.111 124.994H99.7817V113.217C99.7817 112.698 100.057 112.437 100.611 112.437H109.439C110.967 112.437 111.94 112.903 112.621 113.626C113.228 114.275 113.616 115.149 113.616 116.095C113.616 117.096 113.323 118.045 112.437 118.694C113.266 119.195 113.633 119.865 113.633 121.294V123.802C113.633 124.341 113.651 124.638 113.69 124.99H110.325C110.289 124.712 110.268 124.433 110.268 124.154V121.647C110.268 120.849 109.884 120.532 108.907 120.532H103.115V124.99L103.111 124.994ZM108.995 117.675C109.453 117.675 109.732 117.509 109.933 117.266C110.081 117.079 110.173 116.857 110.173 116.617C110.173 116.356 110.081 116.098 109.898 115.911C109.714 115.707 109.418 115.576 108.998 115.576H103.39C103.207 115.576 103.115 115.689 103.115 115.855V117.675H108.998H108.995Z" fill="white"/>
<path d="M132.645 124.1L128.874 116.206C128.839 116.115 128.726 116.058 128.635 116.058C128.486 116.058 128.342 116.171 128.342 116.393V124.993H125.143V115.797C125.143 114.386 125.566 113.512 126.303 112.919C126.853 112.475 127.59 112.157 128.472 112.157C130.052 112.157 130.973 113.106 131.619 114.496L134.433 120.661C134.507 120.848 134.599 120.901 134.747 120.901C134.895 120.901 134.987 120.845 135.061 120.661L137.876 114.496C138.521 113.103 139.438 112.157 141.022 112.157C141.904 112.157 142.641 112.475 143.191 112.919C143.929 113.515 144.352 114.386 144.352 115.797V124.993H141.153V116.393C141.153 116.171 141.005 116.058 140.86 116.058C140.768 116.058 140.659 116.115 140.62 116.206L136.849 124.1C136.465 124.898 135.636 125.254 134.754 125.254C133.872 125.254 133.044 124.901 132.659 124.1H132.645Z" fill="white"/>
<path d="M26.9834 136.957L26.9763 131.794L24.4755 136.157H24.2604L21.7596 131.811V136.957H21.3328V130.922H21.6996L24.3697 135.585L27.0434 130.922H27.4031L27.4102 136.957H26.9834Z" fill="white"/>
<path d="M33.1879 135.257H29.7206L28.9623 136.957H28.4932L31.2409 130.922H31.6747L34.4224 136.957H33.9533L33.1844 135.257H33.1879ZM33.0257 134.887L31.456 131.402L29.8935 134.887H33.0257Z" fill="white"/>
<path d="M39.6605 136.957L38.2355 134.94C38.0485 134.965 37.8581 134.982 37.6535 134.982H35.9463V136.957H35.5125V130.922H37.6535C39.1561 130.922 40.0626 131.681 40.0626 132.958C40.0626 133.913 39.5511 134.58 38.6623 134.845L40.1543 136.957H39.6605ZM37.6535 134.594C38.9339 134.594 39.6181 133.991 39.6181 132.958C39.6181 131.924 38.9339 131.321 37.6535 131.321H35.9463V134.598H37.6535V134.594Z" fill="white"/>
<path d="M43.4307 133.984L42.0903 135.374V136.961H41.6565V130.926H42.0903V134.806L45.8222 130.926H46.3512L43.7235 133.666L46.5311 136.961H46.002L43.4342 133.987L43.4307 133.984Z" fill="white"/>
<path d="M51.7798 136.558V136.954H47.6565V130.918H51.6528V131.314H48.0939V133.694H51.279V134.082H48.0939V136.558H51.7834H51.7798Z" fill="white"/>
<path d="M54.5134 131.317H52.3618V130.922H57.0989V131.317H54.9473V136.957H54.5134V131.317Z" fill="white"/>
<path d="M58.1746 130.922H58.6084V136.957H58.1746V130.922Z" fill="white"/>
<path d="M65.5574 130.922V136.957H65.1976L61.1272 131.716V136.957H60.6934V130.922H61.0602L65.1236 136.164V130.922H65.5574Z" fill="white"/>
<path d="M71.9097 133.966H72.3294V136.224C71.7933 136.742 71.0138 137 70.1954 137C68.393 137 67.0703 135.698 67.0703 133.938C67.0703 132.178 68.393 130.876 70.2025 130.876C71.0631 130.876 71.825 131.152 72.3541 131.705L72.0825 131.998C71.5605 131.48 70.9397 131.282 70.2131 131.282C68.6611 131.282 67.5077 132.421 67.5077 133.938C67.5077 135.455 68.6611 136.594 70.2131 136.594C70.8445 136.594 71.4264 136.439 71.9132 136.044V133.966H71.9097Z" fill="white"/>
<path d="M75.8286 136.181L76.0261 135.853C76.4353 136.284 77.1972 136.612 77.9979 136.612C79.1936 136.612 79.7227 136.086 79.7227 135.43C79.7227 133.621 75.9909 134.707 75.9909 132.481C75.9909 131.628 76.6399 130.876 78.1072 130.876C78.7633 130.876 79.4476 131.085 79.9096 131.42L79.7474 131.772C79.2536 131.427 78.6469 131.264 78.1072 131.264C76.9467 131.264 76.4247 131.808 76.4247 132.471C76.4247 134.28 80.1565 133.211 80.1565 135.402C80.1565 136.255 79.4828 136.996 78.0049 136.996C77.1161 136.996 76.2625 136.661 75.8286 136.178V136.181Z" fill="white"/>
<path d="M81.0596 133.938C81.0596 132.189 82.3823 130.876 84.1671 130.876C85.9518 130.876 87.2745 132.178 87.2745 133.938C87.2745 135.698 85.9413 137 84.1671 137C82.3929 137 81.0596 135.688 81.0596 133.938ZM86.8301 133.938C86.8301 132.411 85.6873 131.282 84.1671 131.282C82.6468 131.282 81.4969 132.411 81.4969 133.938C81.4969 135.465 82.6398 136.594 84.1671 136.594C85.6944 136.594 86.8301 135.465 86.8301 133.938Z" fill="white"/>
<path d="M88.7838 130.922H89.2177V136.562H92.6567V136.957H88.7803V130.922H88.7838Z" fill="white"/>
<path d="M93.6092 134.397V130.922H94.0431V134.379C94.0431 135.889 94.7591 136.594 96.0078 136.594C97.2564 136.594 97.9618 135.889 97.9618 134.379V130.922H98.3957V134.397C98.3957 136.122 97.4821 137 95.9972 137C94.5122 137 93.6057 136.122 93.6057 134.397H93.6092Z" fill="white"/>
<path d="M101.454 131.317H99.3022V130.922H104.039V131.317H101.888V136.957H101.454V131.317Z" fill="white"/>
<path d="M105.115 130.922H105.549V136.957H105.115V130.922Z" fill="white"/>
<path d="M107.062 133.938C107.062 132.189 108.385 130.876 110.17 130.876C111.954 130.876 113.277 132.178 113.277 133.938C113.277 135.698 111.944 137 110.17 137C108.395 137 107.062 135.688 107.062 133.938ZM112.833 133.938C112.833 132.411 111.69 131.282 110.17 131.282C108.649 131.282 107.499 132.411 107.499 133.938C107.499 135.465 108.642 136.594 110.17 136.594C111.697 136.594 112.833 135.465 112.833 133.938Z" fill="white"/>
<path d="M119.654 130.922V136.957H119.295L115.224 131.716V136.957H114.79V130.922H115.157L119.22 136.164V130.922H119.654Z" fill="white"/>
<path d="M121.129 136.181L121.326 135.853C121.736 136.284 122.497 136.612 123.298 136.612C124.494 136.612 125.023 136.086 125.023 135.43C125.023 133.621 121.291 134.707 121.291 132.481C121.291 131.628 121.94 130.876 123.407 130.876C124.064 130.876 124.748 131.085 125.21 131.42L125.048 131.772C124.554 131.427 123.947 131.264 123.407 131.264C122.247 131.264 121.725 131.808 121.725 132.471C121.725 134.28 125.457 133.211 125.457 135.402C125.457 136.255 124.783 136.996 123.305 136.996C122.416 136.996 121.563 136.661 121.129 136.178V136.181Z" fill="white"/>
<path d="M69.9344 47.402C72.7174 47.402 72.7209 43.0776 69.9344 43.0776C67.1479 43.0776 67.1479 47.402 69.9344 47.402Z" fill="white"/>
<path fill-rule="evenodd" clip-rule="evenodd" d="M20.7329 76.1883L20.7329 84.4737C20.7329 94.8084 29.1877 103.263 39.526 103.263H104.194C114.529 103.263 122.984 94.812 122.984 84.4737V18.7931C122.984 8.4583 114.533 0 104.194 0H39.526C29.1912 0 20.7329 8.45477 20.7329 18.7931L20.7329 64.4461H71.1441C73.0241 64.4461 73.9659 64.0405 74.5726 63.2927C75.0417 62.7495 75.3133 62.0018 75.3133 61.1905C75.3133 60.2417 74.9782 59.3563 74.3715 58.7461C73.7684 58.0689 72.8936 57.7268 71.1441 57.7268H52.6649C46.6157 57.7268 43.1202 56.0972 40.7041 53.5858C38.2844 51.0744 36.8735 47.7482 36.8735 44.0164C36.8735 40.2846 38.3514 36.9584 40.7711 34.447C43.1908 31.9356 46.6193 30.3061 52.6649 30.3061H85.9973V42.4538V42.4574H53.3386C51.8607 42.4574 51.053 42.796 50.5168 43.3392C49.9137 43.9494 49.5751 44.7642 49.5751 45.713C49.5751 46.7324 50.0442 47.6142 50.7179 48.1574C51.254 48.6336 51.9277 48.8346 53.3386 48.8346H73.2957C78.4031 48.8346 81.8316 50.4642 84.2513 52.9756C86.671 55.487 88.1489 58.8802 88.1489 62.4779C88.1489 65.8041 86.872 68.9927 84.7874 71.4371C82.3007 74.3541 78.6712 76.1883 73.2957 76.1883H20.7329ZM88.552 42.0214H87.8204V47.0832H88.3938V43.2374H88.4432L90.025 47.0832H90.5787L92.1605 43.2374H92.2099V47.0832H92.7833V42.0214H92.0517L90.3315 46.2231H90.2722L88.552 42.0214Z" fill="white"/>
</svg>
