<svg width="30" height="30" viewBox="0 0 30 30" fill="none" xmlns="http://www.w3.org/2000/svg">
<g clip-path="url(#clip0_79_79)">
<path d="M15 29.1667C23.2843 29.1667 30 22.6375 30 14.5833C30 6.52918 23.2843 0 15 0C6.71573 0 0 6.52918 0 14.5833C0 22.6375 6.71573 29.1667 15 29.1667Z" fill="#2BB573"/>
<path d="M15 26.4323C21.731 26.4323 27.1875 21.1273 27.1875 14.5833C27.1875 8.03933 21.731 2.73438 15 2.73438C8.26903 2.73438 2.8125 8.03933 2.8125 14.5833C2.8125 21.1273 8.26903 26.4323 15 26.4323Z" fill="#EDEFF0"/>
<path d="M15 23.6979C20.1777 23.6979 24.375 19.6172 24.375 14.5833C24.375 9.54949 20.1777 5.46875 15 5.46875C9.82233 5.46875 5.625 9.54949 5.625 14.5833C5.625 19.6172 9.82233 23.6979 15 23.6979Z" fill="#2BB573"/>
<path d="M15 20.9635C18.6244 20.9635 21.5625 18.107 21.5625 14.5833C21.5625 11.0596 18.6244 8.20312 15 8.20312C11.3756 8.20312 8.4375 11.0596 8.4375 14.5833C8.4375 18.107 11.3756 20.9635 15 20.9635Z" fill="#EDEFF0"/>
<path d="M15 18.2292C17.0711 18.2292 18.75 16.5969 18.75 14.5833C18.75 12.5698 17.0711 10.9375 15 10.9375C12.9289 10.9375 11.25 12.5698 11.25 14.5833C11.25 16.5969 12.9289 18.2292 15 18.2292Z" fill="#2BB573"/>
<path d="M14.0625 29.1393C14.3719 29.1393 14.6859 29.1674 15 29.1674H14.0625V29.1393ZM15.9375 29.1393V29.1674H15C15.3141 29.1674 15.6281 29.1674 15.9375 29.1393Z" fill="#D7F8FF"/>
</g>
<defs>
<clipPath id="clip0_79_79">
<rect width="30" height="29.1667" fill="white"/>
</clipPath>
</defs>
</svg>
