<svg width="18" height="23" viewBox="0 0 18 23" fill="none" xmlns="http://www.w3.org/2000/svg">
<path d="M9 0C6.61387 0.0027395 4.32625 0.972927 2.639 2.69771C0.951752 4.4225 0.00267987 6.76102 0 9.20024C0 12.9436 2.65838 16.0521 5.47425 19.3424C6.36525 20.3843 7.28775 21.4619 8.109 22.5521C8.2141 22.6915 8.34907 22.8043 8.50355 22.882C8.65802 22.9596 8.82786 23 9 23C9.17214 23 9.34198 22.9596 9.49645 22.882C9.65093 22.8043 9.7859 22.6915 9.891 22.5521C10.7122 21.4619 11.6347 20.3843 12.5258 19.3424C15.3416 16.0521 18 12.9436 18 9.20024C17.9973 6.76102 17.0482 4.4225 15.361 2.69771C13.6738 0.972927 11.3861 0.0027395 9 0ZM9 12.6503C8.33249 12.6503 7.67997 12.448 7.12495 12.0689C6.56993 11.6898 6.13735 11.151 5.88191 10.5205C5.62646 9.89011 5.55962 9.19641 5.68985 8.52716C5.82007 7.85791 6.14151 7.24316 6.61351 6.76066C7.08552 6.27815 7.68688 5.94956 8.34157 5.81644C8.99626 5.68332 9.67486 5.75164 10.2916 6.01277C10.9083 6.2739 11.4354 6.71611 11.8062 7.28347C12.1771 7.85084 12.375 8.51788 12.375 9.20024C12.375 10.1153 12.0194 10.9928 11.3865 11.6398C10.7536 12.2868 9.89511 12.6503 9 12.6503Z" fill="#2BB573"/>
</svg>
